<?xml version="1.0" encoding="UTF-8"?>
<svg version="1.1" xmlns="http://www.w3.org/2000/svg" width="500" height="500">
<path d="M0 0 C1.97265625 0.265625 1.97265625 0.265625 4.97265625 2.265625 C5.63045272 6.03300479 5.97265625 9.45328014 5.97265625 13.265625 C6.8440625 13.41257813 7.71546875 13.55953125 8.61328125 13.7109375 C25.35564162 16.86371965 38.52602538 24.36433645 48.28515625 38.58984375 C56.74285263 52.00077435 59.14249356 67.10988673 56.09765625 82.765625 C55.49036334 85.4261463 54.74623437 87.9630705 53.90234375 90.5625 C52.89698937 94.56702081 52.8424252 97.8970681 52.97265625 102.015625 C53.10865561 108.64868478 52.51055609 114.78447569 50.97265625 121.265625 C46.22265625 122.265625 46.22265625 122.265625 43.97265625 122.265625 C43.31265625 122.925625 42.65265625 123.585625 41.97265625 124.265625 C41.33328125 124.100625 40.69390625 123.935625 40.03515625 123.765625 C39.35453125 123.600625 38.67390625 123.435625 37.97265625 123.265625 C36.98265625 123.925625 35.99265625 124.585625 34.97265625 125.265625 C33.98265625 124.9871875 33.98265625 124.9871875 32.97265625 124.703125 C32.31265625 124.55875 31.65265625 124.414375 30.97265625 124.265625 C30.47765625 124.760625 29.98265625 125.255625 29.47265625 125.765625 C28.97765625 126.260625 28.48265625 126.755625 27.97265625 127.265625 C25.91015625 127.203125 25.91015625 127.203125 23.97265625 126.265625 C22.72265625 124.203125 22.72265625 124.203125 21.97265625 122.265625 C19.94903185 124.18274286 18.35400079 126.08492548 16.66015625 128.328125 C13.72957673 131.53131657 12.27358369 132.73898082 7.97265625 133.265625 C4.59765625 131.578125 4.59765625 131.578125 1.97265625 129.265625 C1.97265625 128.275625 1.97265625 127.285625 1.97265625 126.265625 C0.44898437 126.13607422 0.44898437 126.13607422 -1.10546875 126.00390625 C-18.71721808 124.29040028 -32.35491038 117.50656108 -44.05078125 103.9140625 C-53.39962621 91.3808948 -55.96527652 77.60164849 -55.02734375 62.265625 C-54.10895754 56.8693143 -52.82820513 51.90233686 -50.41796875 46.9765625 C-48.49526438 41.84575027 -48.89855705 37.41753626 -49.23242188 32.02539062 C-49.43582298 26.21605649 -48.3186424 22.10020861 -45.02734375 17.265625 C-42.66264427 14.76763348 -41.53221252 14.33474797 -38.1171875 13.8671875 C-36.55677734 13.87878906 -36.55677734 13.87878906 -34.96484375 13.890625 C-33.92199219 13.88289062 -32.87914062 13.87515625 -31.8046875 13.8671875 C-29.02734375 14.265625 -29.02734375 14.265625 -27.15625 15.6640625 C-26.02734375 17.265625 -26.02734375 17.265625 -26.02734375 19.265625 C-24.87105469 18.8325 -24.87105469 18.8325 -23.69140625 18.390625 C-22.68851563 18.019375 -21.685625 17.648125 -20.65234375 17.265625 C-19.65460938 16.894375 -18.656875 16.523125 -17.62890625 16.140625 C-15.02734375 15.265625 -15.02734375 15.265625 -13.02734375 15.265625 C-12.94484375 14.42 -12.86234375 13.574375 -12.77734375 12.703125 C-11.12153594 5.11400585 -8.15642226 0.0609826 0 0 Z M-3.02734375 7.265625 C-6.95780687 14.78477184 -8.16577136 20.62762856 -5.90234375 29.015625 C-4.04801342 34.83840139 -1.11185527 40.01496785 1.97265625 45.265625 C2.63265625 45.265625 3.29265625 45.265625 3.97265625 45.265625 C4.63265625 46.585625 5.29265625 47.905625 5.97265625 49.265625 C5.97265625 45.93774054 5.5605039 45.37846864 3.72265625 42.765625 C-2.41890883 33.15958731 -4.7614984 23.21562652 -2.56640625 11.88671875 C-2.02734375 9.953125 -2.02734375 9.953125 -1.02734375 7.265625 C-1.68734375 7.265625 -2.34734375 7.265625 -3.02734375 7.265625 Z M2.97265625 20.265625 C3.73545573 33.48748272 10.44770829 42.9693168 18.69824219 52.75341797 C19.79775614 54.05809027 20.87562296 55.3809495 21.94921875 56.70703125 C23.23451817 58.2740835 24.59356343 59.78044812 25.97265625 61.265625 C26.63265625 61.265625 27.29265625 61.265625 27.97265625 61.265625 C28.215 61.85214844 28.45734375 62.43867188 28.70703125 63.04296875 C31.93642684 68.71434558 39.09063817 72.82673945 44.97265625 75.265625 C45.63265625 75.265625 46.29265625 75.265625 46.97265625 75.265625 C47.30265625 76.255625 47.63265625 77.245625 47.97265625 78.265625 C48.63265625 77.935625 49.29265625 77.605625 49.97265625 77.265625 C50.5969581 61.63495634 47.78927448 49.92250082 38.72265625 37.078125 C38.14515625 36.48 37.56765625 35.881875 36.97265625 35.265625 C36.31265625 35.265625 35.65265625 35.265625 34.97265625 35.265625 C34.97265625 34.605625 34.97265625 33.945625 34.97265625 33.265625 C25.94863824 25.33966228 14.97438151 20.55770238 2.97265625 20.265625 Z M-37.02734375 20.265625 C-40.12178704 23.16042679 -41.77241126 25.02556243 -42.265625 29.359375 C-42.52817119 37.87139873 -40.48503475 45.56402746 -35.15234375 52.328125 C-31.55006046 56.06448832 -28.4158331 57.1764283 -23.203125 57.37109375 C-20.47370525 57.38856763 -17.75521293 57.35299448 -15.02734375 57.265625 C-14.93426733 46.54853969 -15.5885138 39.54910297 -23.02734375 31.265625 C-23.61257812 30.51410156 -24.1978125 29.76257813 -24.80078125 28.98828125 C-28.45119254 24.42113771 -31.46139245 22.08307848 -37.02734375 20.265625 Z M-19.02734375 24.265625 C-17.33257533 27.79211283 -15.38231691 31.1423374 -13.40234375 34.515625 C-12.77070312 35.59328125 -12.1390625 36.6709375 -11.48828125 37.78125 C-11.00617188 38.60109375 -10.5240625 39.4209375 -10.02734375 40.265625 C-8.90780176 36.90699903 -9.08145596 36.52509797 -10.40234375 33.453125 C-11.77236506 30.06873445 -12.57216992 26.90701563 -13.02734375 23.265625 C-16.80373695 22.9674826 -16.80373695 22.9674826 -19.02734375 24.265625 Z M-9.02734375 40.265625 C-10.06625605 44.89840428 -10.20416363 48.64410563 -9.02734375 53.265625 C-5.46341664 58.16003308 -0.48840293 61.89356791 4.14794922 65.72753906 C13.18670399 73.34650548 19.80667364 83.61563109 21.73828125 95.3984375 C22.25151506 101.67699782 22.11318687 107.97297629 21.97265625 114.265625 C23.45765625 113.770625 23.45765625 113.770625 24.97265625 113.265625 C24.9998036 111.03652629 25.01911879 108.80733133 25.03515625 106.578125 C25.04675781 105.33675781 25.05835938 104.09539062 25.0703125 102.81640625 C24.98668872 99.77584577 24.59130208 97.22084854 23.97265625 94.265625 C23.85876514 92.22617953 23.79795439 90.18320798 23.78515625 88.140625 C23.77097656 87.10679687 23.75679687 86.07296875 23.7421875 85.0078125 C23.97265625 82.265625 23.97265625 82.265625 25.97265625 79.265625 C22.64230508 74.99861256 19.09471557 71.57232646 14.96875 68.078125 C12.43136227 65.77411736 10.31518491 63.24006785 8.19921875 60.55078125 C7.79445313 60.12667969 7.3896875 59.70257813 6.97265625 59.265625 C6.31265625 59.265625 5.65265625 59.265625 4.97265625 59.265625 C4.70066406 58.67265625 4.42867187 58.0796875 4.1484375 57.46875 C3.00075284 55.31827111 1.80321733 53.80174944 0.16015625 52.015625 C-2.67319119 48.81422017 -4.88760008 45.45217811 -7.046875 41.76953125 C-7.37042969 41.27324219 -7.69398437 40.77695313 -8.02734375 40.265625 C-8.35734375 40.265625 -8.68734375 40.265625 -9.02734375 40.265625 Z M6.97265625 49.265625 C7.30265625 50.255625 7.63265625 51.245625 7.97265625 52.265625 C7.97265625 51.275625 7.97265625 50.285625 7.97265625 49.265625 C7.64265625 49.265625 7.31265625 49.265625 6.97265625 49.265625 Z M-45.02734375 51.265625 C-46.78070667 55.8673081 -47.46744497 60.19287022 -47.71484375 65.078125 C-47.75174316 65.78807617 -47.78864258 66.49802734 -47.82666016 67.22949219 C-48.43359083 80.83096425 -45.12514757 91.48579553 -36.13671875 102.01171875 C-25.17744161 113.72190932 -14.02394789 118.38368295 1.97265625 119.265625 C6.02080088 110.98532917 8.52400362 101.35850837 5.97265625 92.265625 C3.29638951 85.65118093 0.42131556 79.99735545 -5.02734375 75.265625 C-5.89359375 74.09 -5.89359375 74.09 -6.77734375 72.890625 C-10.99936156 67.96493755 -14.86867374 63.7431395 -21.515625 62.73828125 C-23.95885708 62.63250246 -26.40301853 62.54618482 -28.84765625 62.48046875 C-33.0067235 62.19945069 -35.04839607 61.1681894 -38.02734375 58.265625 C-39.76931266 55.97898412 -41.39033932 53.63018695 -43.02734375 51.265625 C-43.68734375 51.265625 -44.34734375 51.265625 -45.02734375 51.265625 Z M31.97265625 75.265625 C32.97265625 77.265625 32.97265625 77.265625 32.97265625 77.265625 Z M32.97265625 77.265625 C30.13744495 82.8179138 29.5931333 87.06675015 29.97265625 93.265625 C30.64167969 92.52699219 30.64167969 92.52699219 31.32421875 91.7734375 C32.97265625 90.265625 32.97265625 90.265625 35.34765625 90.140625 C36.21390625 90.181875 37.08015625 90.223125 37.97265625 90.265625 C39.64609073 89.96812554 41.3157154 89.64435434 42.97265625 89.265625 C43.63265625 90.585625 44.29265625 91.905625 44.97265625 93.265625 C44.85755964 91.84811937 44.73011967 90.43161331 44.59765625 89.015625 C44.52804688 88.22671875 44.4584375 87.4378125 44.38671875 86.625 C43.93811185 84.06878709 43.44862269 82.40577634 41.97265625 80.265625 C39.80984343 79.1430601 39.80984343 79.1430601 37.34765625 78.515625 C36.53039062 78.27328125 35.713125 78.0309375 34.87109375 77.78125 C34.24460937 77.61109375 33.618125 77.4409375 32.97265625 77.265625 Z M8.97265625 81.265625 C9.50415684 83.46903035 10.0839705 85.64224783 10.7265625 87.81640625 C10.99339844 88.72777344 11.26023437 89.63914062 11.53515625 90.578125 C11.80457031 91.48175781 12.07398438 92.38539063 12.3515625 93.31640625 C13.90070681 100.67240595 12.27577493 107.07349628 10.47265625 114.203125 C10.23417969 115.17314453 9.99570313 116.14316406 9.75 117.14257812 C9.16472237 119.51880532 8.57212374 121.89294542 7.97265625 124.265625 C9.29265625 124.265625 10.61265625 124.265625 11.97265625 124.265625 C16.15686566 111.13404955 18.14656824 97.35527744 11.84765625 84.578125 C11.22890625 83.485 10.61015625 82.391875 9.97265625 81.265625 C9.64265625 81.265625 9.31265625 81.265625 8.97265625 81.265625 Z M44.97265625 101.265625 C45.97265625 105.265625 45.97265625 105.265625 45.97265625 105.265625 Z " fill="#EF7F43" transform="translate(120.02734375,186.734375)"/>
<path d="M0 0 C1.485 0.495 1.485 0.495 3 1 C2.01 1.33 1.02 1.66 0 2 C0.78130071 4.49552484 0.78130071 4.49552484 2 7 C2.99 7.33 3.98 7.66 5 8 C9.58349547 13.80442658 12.3409845 19.04853479 12.125 26.5 C12.22039136 30.70726117 12.72469302 33.07207229 15.58203125 36.1015625 C18.37150261 38.72377512 21.32677707 41.14496407 24.29296875 43.56347656 C34.0841676 51.80309527 41.66882449 62.38776766 43.765625 75.19921875 C44.26156283 81.12567583 44.14256285 87.05988118 44 93 C44.66 93 45.32 93 46 93 C46 82.77 46 72.54 46 62 C46.66 62 47.32 62 48 62 C48.39169887 59.33644766 48.40564529 57.60775627 46.88671875 55.33203125 C45.63610683 53.8489112 44.32135486 52.42045648 43 51 C46.06573761 51.91143551 47.6837838 52.58832231 49.65625 55.15625 C51.28505317 58.60325205 51.30244064 61.01945877 51.1875 64.8125 C51.14689453 66.55466797 51.14689453 66.55466797 51.10546875 68.33203125 C51.07066406 69.21246094 51.03585938 70.09289062 51 71 C51.99 70.34 52.98 69.68 54 69 C55.66608987 68.95615553 57.33380554 68.9603287 59 69 C60.67225729 68.69595322 62.34080104 68.36871088 64 68 C64.33 68 64.66 68 65 68 C64.85904936 66.3745692 64.71207913 64.74965949 64.5625 63.125 C64.48128906 62.22007812 64.40007812 61.31515625 64.31640625 60.3828125 C64.13010715 57.98889139 64.13010715 57.98889139 63 56 C60.98330173 54.86649466 60.98330173 54.86649466 59 54 C59.33 53.01 59.66 52.02 60 51 C61.29858939 51.56775536 62.58870441 52.15491663 63.875 52.75 C64.95394531 53.23726563 64.95394531 53.23726563 66.0546875 53.734375 C68.35471429 55.23077797 68.89049067 56.54108742 70 59 C70.66 59.33 71.32 59.66 72 60 C71.94780133 55.66571077 71.85264407 51.33336493 71.75 47 C71.73582031 45.77925781 71.72164063 44.55851562 71.70703125 43.30078125 C71.50950579 35.99233912 70.61140669 31.3274233 67 25 C67.495 23.515 67.495 23.515 68 22 C68.268125 22.639375 68.53625 23.27875 68.8125 23.9375 C69.88667752 26.33131686 69.88667752 26.33131686 73 27 C76.98779362 33.76934483 76.48277784 42.11786912 76.4375 49.6875 C76.45748047 50.88439453 76.47746094 52.08128906 76.49804688 53.31445312 C76.49426518 60.11016336 75.93266548 63.38299524 72 69 C71.3782619 72.78314364 71.34912137 76.54684578 71.3125 80.375 C71.26991647 82.38287813 71.22439802 84.3906964 71.17578125 86.3984375 C71.15467285 87.34944336 71.13356445 88.30044922 71.11181641 89.28027344 C70.96298916 92.90022009 70.52593082 96.41682904 70 100 C68.35 100 66.7 100 65 100 C64.01 101.98 64.01 101.98 63 104 C62.1028125 103.690625 62.1028125 103.690625 61.1875 103.375 C58.71549154 102.69328085 58.71549154 102.69328085 56 105 C55.01 104.7215625 55.01 104.7215625 54 104.4375 C53.34 104.293125 52.68 104.14875 52 104 C51.505 104.495 51.01 104.99 50.5 105.5 C50.005 105.995 49.51 106.49 49 107 C46.9375 106.9375 46.9375 106.9375 45 106 C43.75 103.9375 43.75 103.9375 43 102 C40.9763756 103.91711786 39.38134454 105.81930048 37.6875 108.0625 C34.75692048 111.26569157 33.30092744 112.47335582 29 113 C25.625 111.3125 25.625 111.3125 23 109 C23 108.01 23 107.02 23 106 C22.39414063 105.97421875 21.78828125 105.9484375 21.1640625 105.921875 C12.45368125 105.33224919 5.37059901 102.63294795 -2 98 C-3.65369357 97.30177383 -5.31727014 96.62501395 -7 96 C-7 95.34 -7 94.68 -7 94 C-7.86625 93.62875 -7.86625 93.62875 -8.75 93.25 C-11.31119917 91.82711157 -12.9333048 90.0666952 -15 88 C-16.17369141 87.43152344 -16.17369141 87.43152344 -17.37109375 86.8515625 C-21.00953316 84.28897664 -22.28115858 81.28076741 -24.125 77.3125 C-24.62580078 76.28866211 -24.62580078 76.28866211 -25.13671875 75.24414062 C-26.13139377 73.17872719 -27.07313482 71.09662784 -28 69 C-28.29640381 68.35957764 -28.59280762 67.71915527 -28.89819336 67.05932617 C-31.23008574 61.58832133 -31.4212834 56.5835605 -31.3125 50.6875 C-31.31572266 49.79482422 -31.31894531 48.90214844 -31.32226562 47.98242188 C-31.26779762 41.40169643 -31.26779762 41.40169643 -29 38 C-29.33 43.28 -29.66 48.56 -30 54 C-28.68 54 -27.36 54 -26 54 C-25.90203125 54.60585938 -25.8040625 55.21171875 -25.703125 55.8359375 C-23.11916972 70.31499727 -17.05533101 80.86234891 -5.015625 89.60546875 C-4.35046875 90.06566406 -3.6853125 90.52585937 -3 91 C-1.7934375 91.86625 -1.7934375 91.86625 -0.5625 92.75 C5.70889468 95.80921692 12.25812095 97.26935907 19.1875 97.7890625 C21 98 21 98 23 99 C23.70602629 96.19104563 24.38988844 93.37947712 25.0625 90.5625 C25.26166016 89.77939453 25.46082031 88.99628906 25.66601562 88.18945312 C28.23051136 77.2566029 25.81271913 65.61334318 20 56 C18.35353315 54.31337542 16.68816933 52.64488294 15 51 C14.67 50.278125 14.34 49.55625 14 48.8125 C12.57003561 46.22068954 10.73886163 45.86490367 8 45 C8 44.01 8 43.02 8 42 C9.32 42.33 10.64 42.66 12 43 C12 42.34 12 41.68 12 41 C11.34 41 10.68 41 10 41 C10 39.68 10 38.36 10 37 C9.01 37 8.02 37 7 37 C5.97302966 33.91908899 5.96545646 31.41466814 5.96362305 28.19848633 C5.85356832 18.67309553 3.8301589 13.88320868 -3 7 C-4.43271892 5.04629238 -5.70588735 3.0490117 -7 1 C-5.5459375 1.0309375 -5.5459375 1.0309375 -4.0625 1.0625 C-1.12534105 1.35618499 -1.12534105 1.35618499 0 0 Z M30 61 C30.53150059 63.20340535 31.11131425 65.37662283 31.75390625 67.55078125 C32.02074219 68.46214844 32.28757813 69.37351562 32.5625 70.3125 C32.83191406 71.21613281 33.10132813 72.11976563 33.37890625 73.05078125 C34.92805056 80.40678095 33.30311868 86.80787128 31.5 93.9375 C31.26152344 94.90751953 31.02304688 95.87753906 30.77734375 96.87695312 C30.19206612 99.25318032 29.59946749 101.62732042 29 104 C30.32 104 31.64 104 33 104 C37.18420941 90.86842455 39.17391199 77.08965244 32.875 64.3125 C32.25625 63.219375 31.6375 62.12625 31 61 C30.67 61 30.34 61 30 61 Z M66 81 C67 85 67 85 67 85 Z " fill="#F57B3B" transform="translate(99,207)"/>
<path d="M0 0 C1.67293936 0.30027117 3.33985384 0.63557767 5 1 C7.0745356 1.1490712 7.0745356 1.1490712 9 0 C12.65100234 -0.20666051 15.34205876 -0.26915778 18.75 1.125 C19.4925 1.41375 20.235 1.7025 21 2 C21.99 1.34 22.98 0.68 24 0 C28.18380896 -0.30427702 31.47170685 -0.44266449 35 2 C36.2263757 4.45275141 36.11415314 6.0505781 36.09765625 8.7890625 C36.09443359 9.73007813 36.09121094 10.67109375 36.08789062 11.640625 C36.07532227 13.11789063 36.07532227 13.11789063 36.0625 14.625 C36.05798828 15.61757813 36.05347656 16.61015625 36.04882812 17.6328125 C36.03702145 20.0886016 36.020554 22.54427104 36 25 C33.69 25 31.38 25 29 25 C28.93941406 23.86820312 28.87882812 22.73640625 28.81640625 21.5703125 C28.73200083 20.08852855 28.64735283 18.6067584 28.5625 17.125 C28.52318359 16.37863281 28.48386719 15.63226563 28.44335938 14.86328125 C28.28426376 10.80013136 28.28426376 10.80013136 27 7 C25.68 7.33 24.36 7.66 23 8 C21.95117609 11.56071312 21.69613047 15.05527897 21.4375 18.75 C21.35371094 19.92046875 21.26992188 21.0909375 21.18359375 22.296875 C21.09271484 23.63492187 21.09271484 23.63492187 21 25 C18.69 25 16.38 25 14 25 C13.67 19.39 13.34 13.78 13 8 C12.01 7.67 11.02 7.34 10 7 C9.01 7.495 9.01 7.495 8 8 C7.52381188 10.87182587 7.15832403 13.67120147 6.875 16.5625 C6.78863281 17.36880859 6.70226562 18.17511719 6.61328125 19.00585938 C6.40056372 21.00304064 6.19922145 23.00142737 6 25 C3.69 25 1.38 25 -1 25 C-1.02886984 21.02084841 -1.04675406 17.04172347 -1.0625 13.0625 C-1.07087891 11.92619141 -1.07925781 10.78988281 -1.08789062 9.61914062 C-1.09111328 8.53955078 -1.09433594 7.45996094 -1.09765625 6.34765625 C-1.10289307 5.34742432 -1.10812988 4.34719238 -1.11352539 3.31665039 C-1 1 -1 1 0 0 Z " fill="#010101" transform="translate(317,242)"/>
<path d="M0 0 C1.97265625 0.265625 1.97265625 0.265625 4.97265625 2.265625 C5.63045272 6.03300479 5.97265625 9.45328014 5.97265625 13.265625 C6.936875 13.45898438 7.90109375 13.65234375 8.89453125 13.8515625 C10.1578125 14.11195313 11.42109375 14.37234375 12.72265625 14.640625 C13.975625 14.89585937 15.22859375 15.15109375 16.51953125 15.4140625 C19.34455996 16.11073248 21.54568165 16.69522967 23.97265625 18.265625 C24.72265625 20.390625 24.72265625 20.390625 24.97265625 22.265625 C26.29265625 22.265625 27.61265625 22.265625 28.97265625 22.265625 C31.22265625 24.265625 31.22265625 24.265625 32.97265625 26.265625 C32.64265625 26.925625 32.31265625 27.585625 31.97265625 28.265625 C31.23015625 27.79125 30.48765625 27.316875 29.72265625 26.828125 C27.14798536 25.2025225 27.14798536 25.2025225 24.72265625 24.703125 C24.14515625 24.55875 23.56765625 24.414375 22.97265625 24.265625 C22.47765625 23.275625 22.47765625 23.275625 21.97265625 22.265625 C19.3991614 21.64525542 16.89044242 21.13926237 14.28515625 20.703125 C13.57681641 20.57744141 12.86847656 20.45175781 12.13867188 20.32226562 C10.08489523 19.96005756 8.02945774 19.61020142 5.97265625 19.265625 C4.81121094 19.07097656 3.64976563 18.87632812 2.453125 18.67578125 C1.63457031 18.54042969 0.81601563 18.40507812 -0.02734375 18.265625 C2.35882905 30.11032798 2.35882905 30.11032798 7.8671875 40.71484375 C9.319162 42.75171257 10.16290598 44.90998786 10.97265625 47.265625 C11.63265625 47.265625 12.29265625 47.265625 12.97265625 47.265625 C13.22015625 47.86375 13.46765625 48.461875 13.72265625 49.078125 C15.13709716 51.55339659 16.70125813 52.59993304 18.97265625 54.265625 C18.97265625 54.925625 18.97265625 55.585625 18.97265625 56.265625 C13.43984169 55.47522292 10.12738409 53.74554601 6.65625 49.296875 C5.89224953 48.12966592 5.14407911 46.95197697 4.41015625 45.765625 C4.02029541 45.14051025 3.63043457 44.51539551 3.22875977 43.87133789 C-2.59620569 34.2780688 -5.28040822 25.61605777 -4.02734375 14.265625 C-3.41750511 12.24757117 -2.76531202 10.2404281 -2.02734375 8.265625 C-4.71290315 10.9511844 -5.08784349 13.64183828 -6.02734375 17.265625 C-6.68734375 17.265625 -7.34734375 17.265625 -8.02734375 17.265625 C-8.35734375 20.895625 -8.68734375 24.525625 -9.02734375 28.265625 C-11.38687469 25.90609406 -11.51875788 24.48666883 -12.02734375 21.265625 C-14.33734375 20.605625 -16.64734375 19.945625 -19.02734375 19.265625 C-18.53234375 17.780625 -18.53234375 17.780625 -18.02734375 16.265625 C-16.37734375 15.935625 -14.72734375 15.605625 -13.02734375 15.265625 C-12.94484375 14.42 -12.86234375 13.574375 -12.77734375 12.703125 C-11.12153594 5.11400585 -8.15642226 0.0609826 0 0 Z " fill="#F27C39" transform="translate(120.02734375,186.734375)"/>
<path d="M0 0 C15 0 15 0 21 3 C23.38699285 6.14649057 23.47251366 9.14113846 23 13 C21 15.875 21 15.875 19 18 C20.35571097 22.06713292 22.39673943 25.08650139 24.9765625 28.44921875 C26 30 26 30 26 32 C22.81250449 32.6374991 20.15732488 32.86248875 17 32 C14.09644035 28.76209105 11 24.49032639 11 20 C10.01 20 9.02 20 8 20 C8 23.96 8 27.92 8 32 C5.36 32 2.72 32 0 32 C0 21.44 0 10.88 0 0 Z M8 7 C8 9.31 8 11.62 8 14 C10.41645782 14.16687448 10.41645782 14.16687448 13 14 C13.66 13.34 14.32 12.68 15 12 C14.67958603 9.39719432 14.67958603 9.39719432 14 7 C12.02 7 10.04 7 8 7 Z " fill="#010101" transform="translate(193,235)"/>
<path d="M0 0 C0.33 0 0.66 0 1 0 C0.67 5.28 0.34 10.56 0 16 C1.32 16 2.64 16 4 16 C4.09796875 16.60585938 4.1959375 17.21171875 4.296875 17.8359375 C6.88083028 32.31499727 12.94466899 42.86234891 24.984375 51.60546875 C25.64953125 52.06566406 26.3146875 52.52585937 27 53 C28.2065625 53.86625 28.2065625 53.86625 29.4375 54.75 C32.77606992 56.37857069 36.20846363 57.30269575 39.79296875 58.25390625 C42 59 42 59 44 61 C46.43252661 61.46162427 46.43252661 61.46162427 49.125 61.625 C50.03507812 61.69976562 50.94515625 61.77453125 51.8828125 61.8515625 C52.58148438 61.90054688 53.28015625 61.94953125 54 62 C54.28875 60.865625 54.5775 59.73125 54.875 58.5625 C55.24625 57.386875 55.6175 56.21125 56 55 C56.66 54.67 57.32 54.34 58 54 C58.47597366 51.29400158 58.84093629 48.66404596 59.125 45.9375 C59.21136719 45.17888672 59.29773438 44.42027344 59.38671875 43.63867188 C59.59939517 41.76003014 59.80075459 39.88011364 60 38 C60.33 38.66 60.66 39.32 61 40 C61.99 40.495 61.99 40.495 63 41 C62.505 41.99 62.505 41.99 62 43 C62.020625 44.093125 62.04125 45.18625 62.0625 46.3125 C62.00120931 49.92865076 61.41412572 51.75582922 60 55 C59.62406934 56.9924325 59.28020455 58.9918674 59 61 C58.34 61 57.68 61 57 61 C57 64.3 57 67.6 57 71 C56.01 70.67 55.02 70.34 54 70 C54 68.68 54 67.36 54 66 C53.23816406 66.03480469 52.47632813 66.06960938 51.69140625 66.10546875 C42.48621734 66.34680329 35.78110528 64.9712617 28 60 C26.34630643 59.30177383 24.68272986 58.62501395 23 58 C23 57.34 23 56.68 23 56 C22.4225 55.7525 21.845 55.505 21.25 55.25 C18.68880083 53.82711157 17.0666952 52.0666952 15 50 C13.82630859 49.43152344 13.82630859 49.43152344 12.62890625 48.8515625 C8.99046684 46.28897664 7.71884142 43.28076741 5.875 39.3125 C5.54113281 38.62994141 5.20726563 37.94738281 4.86328125 37.24414062 C3.86861074 35.17873656 2.92706719 33.09652587 2 31 C1.70287109 30.35957764 1.40574219 29.71915527 1.09960938 29.05932617 C-1.24064845 23.58005232 -1.38942202 18.59115097 -1.25 12.6875 C-1.24484375 11.79482422 -1.2396875 10.90214844 -1.234375 9.98242188 C-1.15594506 3.46783519 -1.15594506 3.46783519 0 0 Z " fill="#EE8147" transform="translate(69,245)"/>
<path d="M0 0 C2 1.625 2 1.625 3 3.625 C3.08372659 5.14648326 3.10730027 6.67155778 3.09765625 8.1953125 C3.09443359 9.09121094 3.09121094 9.98710937 3.08789062 10.91015625 C3.07951172 11.84730469 3.07113281 12.78445313 3.0625 13.75 C3.05798828 14.69488281 3.05347656 15.63976562 3.04882812 16.61328125 C3.03702357 18.95058387 3.02055759 21.28776061 3 23.625 C0.33333333 23.625 -2.33333333 23.625 -5 23.625 C-5.99 23.955 -6.98 24.285 -8 24.625 C-11.81546222 24.9718602 -14.13278796 25.15866895 -17.4375 23.125 C-19.78057502 19.37607996 -19.48773804 17.01464238 -19 12.625 C-17.45661909 10.45023599 -16.36334727 9.80667363 -14 8.625 C-12.46331135 8.40032169 -10.92031946 8.21703195 -9.375 8.0625 C-8.55773437 7.97871094 -7.74046875 7.89492187 -6.8984375 7.80859375 C-6.27195312 7.74800781 -5.64546875 7.68742188 -5 7.625 C-5.33 6.965 -5.66 6.305 -6 5.625 C-8.97 5.625 -11.94 5.625 -15 5.625 C-15.66 3.975 -16.32 2.325 -17 0.625 C-11.53833479 -2.19392398 -5.57857675 -2.55684768 0 0 Z M-12 15.625 C-11.67 16.615 -11.34 17.605 -11 18.625 C-8.54775306 18.51886164 -8.54775306 18.51886164 -6 17.625 C-4.62533375 15.14863988 -4.62533375 15.14863988 -4 12.625 C-7.57575896 12.625 -9.05295935 13.71340607 -12 15.625 Z " fill="#010101" transform="translate(377,243.375)"/>
<path d="M0 0 C5.5 3 5.5 3 7 6 C7.13559318 9.00474497 7.04299016 11.99068847 7 15 C2.05 15 -2.9 15 -8 15 C-7.67 16.32 -7.34 17.64 -7 19 C-2.48382401 19.07654536 1.59085217 19.10228696 6 18 C6 19.98 6 21.96 6 24 C1.6383311 26.47687533 -2.08520293 26.5290233 -7 26 C-11.20346672 24.6766864 -12.57641728 23.66953398 -14.9375 19.9375 C-16.57908552 15.30763905 -16.32477883 10.68828916 -15 6 C-10.67829436 0.57016471 -6.87824845 -0.95708466 0 0 Z M-6 6 C-6.66 7.32 -7.32 8.64 -8 10 C-5.36 10 -2.72 10 0 10 C-0.66 8.68 -1.32 7.36 -2 6 C-3.32 6 -4.64 6 -6 6 Z " fill="#010101" transform="translate(419,242)"/>
<path d="M0 0 C5.5 3 5.5 3 7 6 C7.13559318 9.00474497 7.04299016 11.99068847 7 15 C2.05 15 -2.9 15 -8 15 C-7.67 16.32 -7.34 17.64 -7 19 C-2.48382401 19.07654536 1.59085217 19.10228696 6 18 C6 19.98 6 21.96 6 24 C1.6383311 26.47687533 -2.08520293 26.5290233 -7 26 C-11.20346672 24.6766864 -12.57641728 23.66953398 -14.9375 19.9375 C-16.57908552 15.30763905 -16.32477883 10.68828916 -15 6 C-10.67829436 0.57016471 -6.87824845 -0.95708466 0 0 Z M-6 6 C-6.66 7.32 -7.32 8.64 -8 10 C-5.36 10 -2.72 10 0 10 C-0.66 8.68 -1.32 7.36 -2 6 C-3.32 6 -4.64 6 -6 6 Z " fill="#010101" transform="translate(236,242)"/>
<path d="M0 0 C3.73739707 1.66106536 5.86231004 3.53897817 8 7 C8.779814 11.66588707 9.10080606 16.75199375 6.98046875 21.08203125 C4.87694514 23.69395935 3.1854514 24.93818287 0 26 C-5.20018211 26.39246657 -8.68532244 26.03988646 -13 23 C-16.12518015 18.06019912 -16.43236372 14.06671868 -15.65234375 8.30859375 C-14.67533603 4.85103949 -12.81546297 3.12876468 -10 1 C-6.80657621 -0.59671189 -3.47454369 -0.37418163 0 0 Z M-6.625 7 C-8.77210975 10.12306873 -8.59707191 13.32571131 -8 17 C-6.66641006 19.009245 -6.66641006 19.009245 -5 20 C-1.27385847 18.88145414 -1.27385847 18.88145414 1 16 C1.4069579 12.25598728 1.49904726 10.63212653 -0.875 7.625 C-3.3143923 5.75958236 -4.00338038 5.38669562 -6.625 7 Z " fill="#010101" transform="translate(303,242)"/>
<path d="M0 0 C0.56847656 0.32355469 1.13695312 0.64710938 1.72265625 0.98046875 C1.06265625 2.96046875 0.40265625 4.94046875 -0.27734375 6.98046875 C-4.73234375 5.99046875 -4.73234375 5.99046875 -9.27734375 4.98046875 C-8.00348241 7.52819143 -6.89128879 7.79932963 -4.33984375 8.98046875 C-1.79118887 10.16459878 -0.28977216 10.96804034 1.72265625 12.98046875 C2.29099184 20.14149717 2.29099184 20.14149717 0.41015625 22.91796875 C-2.59624639 24.81088893 -5.25104603 25.13876304 -8.71484375 25.16796875 C-9.47667969 25.18214844 -10.23851562 25.19632812 -11.0234375 25.2109375 C-13.5108169 24.95659541 -15.12542481 24.22064071 -17.27734375 22.98046875 C-17.27734375 21.00046875 -17.27734375 19.02046875 -17.27734375 16.98046875 C-13.64734375 17.31046875 -10.01734375 17.64046875 -6.27734375 17.98046875 C-7.78304437 14.96906752 -10.37879204 14.41775055 -13.3671875 13.078125 C-15.27734375 11.98046875 -15.27734375 11.98046875 -17.27734375 8.98046875 C-17.20726169 5.05587328 -17.1545212 2.8302344 -14.27734375 0.04296875 C-9.57799359 -1.62138443 -4.63085062 -2.07315954 0 0 Z " fill="#010101" transform="translate(263.27734375,243.01953125)"/>
<path d="M0 0 C4.10047182 6.15070773 4.8721392 13.3272459 3.52783203 20.52978516 C2.89126696 23.3435728 2.20732813 26.14068633 1.5 28.9375 C1.14228516 30.3925293 1.14228516 30.3925293 0.77734375 31.87695312 C0.19206612 34.25318032 -0.40053251 36.62732042 -1 39 C-0.34 39 0.32 39 1 39 C1.66 37.35 2.32 35.7 3 34 C3.33 34 3.66 34 4 34 C4.125 37.375 4.125 37.375 4 41 C3.34 41.66 2.68 42.32 2 43 C3.375 41.5 3.375 41.5 5 40 C5.66 40 6.32 40 7 40 C7.33 38.68 7.66 37.36 8 36 C11.465 35.505 11.465 35.505 15 35 C15.12375 35.78375 15.2475 36.5675 15.375 37.375 C15.79117993 40.14057822 15.79117993 40.14057822 18 42 C16.125 41.75 16.125 41.75 14 41 C12.75 38.9375 12.75 38.9375 12 37 C9.9763756 38.91711786 8.38134454 40.81930048 6.6875 43.0625 C3.75692048 46.26569157 2.30092744 47.47335582 -2 48 C-5.375 46.3125 -5.375 46.3125 -8 44 C-8 43.01 -8 42.02 -8 41 C-11.3 40.67 -14.6 40.34 -18 40 C-18 39.67 -18 39.34 -18 39 C-14.37 39 -10.74 39 -7 39 C-6.67 40.32 -6.34 41.64 -6 43 C-5.34 43.33 -4.68 43.66 -4 44 C-4 40.7 -4 37.4 -4 34 C-3.34 34 -2.68 34 -2 34 C-1.90912109 32.98679687 -1.90912109 32.98679687 -1.81640625 31.953125 C-1.73261719 31.06109375 -1.64882812 30.1690625 -1.5625 29.25 C-1.48128906 28.36828125 -1.40007812 27.4865625 -1.31640625 26.578125 C-1 24 -1 24 -0.46484375 22.109375 C0.25107456 19.22066786 0.25107456 19.22066786 0 13 C-0.66 17.62 -1.32 22.24 -2 27 C-2.99 27.33 -3.98 27.66 -5 28 C-5.144375 28.78375 -5.28875 29.5675 -5.4375 30.375 C-6 33 -6 33 -7 35 C-10.3 35 -13.6 35 -17 35 C-17.33 34.34 -17.66 33.68 -18 33 C-10.25 32.875 -10.25 32.875 -8 34 C-7.29397371 31.19104563 -6.61011156 28.37947712 -5.9375 25.5625 C-5.63875977 24.3878418 -5.63875977 24.3878418 -5.33398438 23.18945312 C-3.6657329 16.0774337 -4.15462591 10.02385044 -6 3 C-3.03 3.495 -3.03 3.495 0 4 C0 2.68 0 1.36 0 0 Z " fill="#E9854E" transform="translate(130,272)"/>
<path d="M0 0 C10.9659328 10.32087793 17.46108147 22.40698511 18.16796875 37.61328125 C18.21387696 46.30829655 17.61591446 54.02251168 14.9296875 62.296875 C13.92433312 66.30139581 13.86976895 69.6314431 14 73.75 C14.13599936 80.38305978 13.53789984 86.51885069 12 93 C9.525 93.495 9.525 93.495 7 94 C6.67 93.34 6.34 92.68 6 92 C7.32 92 8.64 92 10 92 C10.0093457 91.09233887 10.01869141 90.18467773 10.02832031 89.24951172 C10.07250484 85.86073186 10.13419111 82.47318774 10.20751953 79.08496094 C10.2356311 77.62251295 10.25689431 76.1599158 10.27099609 74.69726562 C10.29256419 72.58646831 10.33927656 70.47744571 10.390625 68.3671875 C10.41157227 67.09987793 10.43251953 65.83256836 10.45410156 64.52685547 C11.08858 60.42771615 12.69035438 58.39047941 15 55 C15.58898545 51.97350938 15.58898545 51.97350938 15.49609375 48.82421875 C15.49673828 47.66599609 15.49738281 46.50777344 15.49804688 45.31445312 C15.46807617 43.51911133 15.46807617 43.51911133 15.4375 41.6875 C15.44458984 40.50220703 15.45167969 39.31691406 15.45898438 38.09570312 C15.40217 30.21598696 15.1102366 22.64342002 9.8125 16.4375 C8.9153125 15.7259375 8.9153125 15.7259375 8 15 C8.28875 15.721875 8.5775 16.44375 8.875 17.1875 C9.24625 18.115625 9.6175 19.04375 10 20 C10.3491748 20.75112061 10.69834961 21.50224121 11.05810547 22.27612305 C12.16259759 25.47021807 12.22731087 28.01870281 12.1953125 31.39453125 C12.18564453 33.19760742 12.18564453 33.19760742 12.17578125 35.03710938 C12.15902344 36.28298828 12.14226562 37.52886719 12.125 38.8125 C12.11597656 40.07771484 12.10695312 41.34292969 12.09765625 42.64648438 C12.07412394 45.76451564 12.04124545 48.88216097 12 52 C11.01 51.67 10.02 51.34 9 51 C9.33 50.34 9.66 49.68 10 49 C10.98427946 35.25794449 8.61852654 23.5666692 1 12 C0.443125 11.44441406 -0.11375 10.88882813 -0.6875 10.31640625 C-2 9 -2 9 -2 7 C-0.68 7.33 0.64 7.66 2 8 C2 8.99 2 9.98 2 11 C2.99 11 3.98 11 5 11 C4.72285156 10.45730469 4.44570312 9.91460937 4.16015625 9.35546875 C3.79792969 8.64003906 3.43570313 7.92460937 3.0625 7.1875 C2.70285156 6.47980469 2.34320313 5.77210938 1.97265625 5.04296875 C1 3 1 3 0 0 Z " fill="#EC864A" transform="translate(159,215)"/>
<path d="M0 0 C1.65 0 3.3 0 5 0 C5 1.65 5 3.3 5 5 C5.969375 4.979375 6.93875 4.95875 7.9375 4.9375 C11 5 11 5 12 6 C12.04063832 7.66617115 12.042721 9.33388095 12 11 C9.69 11 7.38 11 5 11 C5.33 15.29 5.66 19.58 6 24 C7.98 24 9.96 24 12 24 C12 25.98 12 27.96 12 30 C8.81229715 31.59385143 5.46911329 31.38469375 2 31 C-0.50924108 29.7132097 -1.65417992 28.98285707 -2.59375 26.3125 C-3.12905809 23.26536165 -3.09341886 20.34188633 -3.0625 17.25 C-3.05347656 16.07953125 -3.04445313 14.9090625 -3.03515625 13.703125 C-3.02355469 12.81109375 -3.01195312 11.9190625 -3 11 C-3.99 11 -4.98 11 -6 11 C-5.6875 9.0625 -5.6875 9.0625 -5 7 C-4.01 6.67 -3.02 6.34 -2 6 C-0.77479736 2.99152582 -0.77479736 2.99152582 0 0 Z " fill="#010101" transform="translate(389,237)"/>
<path d="M0 0 C1.65 0 3.3 0 5 0 C5 1.65 5 3.3 5 5 C5.969375 4.979375 6.93875 4.95875 7.9375 4.9375 C11 5 11 5 12 6 C12.04063832 7.66617115 12.042721 9.33388095 12 11 C9.69 11 7.38 11 5 11 C5.33 15.29 5.66 19.58 6 24 C7.98 24 9.96 24 12 24 C12 25.98 12 27.96 12 30 C8.81229715 31.59385143 5.46911329 31.38469375 2 31 C-0.50924108 29.7132097 -1.65417992 28.98285707 -2.59375 26.3125 C-3.12905809 23.26536165 -3.09341886 20.34188633 -3.0625 17.25 C-3.05347656 16.07953125 -3.04445313 14.9090625 -3.03515625 13.703125 C-3.02355469 12.81109375 -3.01195312 11.9190625 -3 11 C-3.99 11 -4.98 11 -6 11 C-5.6875 9.0625 -5.6875 9.0625 -5 7 C-4.01 6.67 -3.02 6.34 -2 6 C-0.77479736 2.99152582 -0.77479736 2.99152582 0 0 Z " fill="#010101" transform="translate(273,237)"/>
<path d="M0 0 C11.95991463 9.61993133 22.27134494 20.90809647 24.76171875 36.5546875 C25.37097941 42.80710015 25.29821163 48.83349475 24 55 C23.67 55 23.34 55 23 55 C22.93941406 53.78441406 22.87882812 52.56882812 22.81640625 51.31640625 C22.73201668 49.73175772 22.6473679 48.14712298 22.5625 46.5625 C22.52318359 45.76005859 22.48386719 44.95761719 22.44335938 44.13085938 C22.5945704 40.24760439 22.5945704 40.24760439 21 37 C20.34 43.93 19.68 50.86 19 58 C17.515 58.495 17.515 58.495 16 59 C16.09539062 57.82824219 16.19078125 56.65648437 16.2890625 55.44921875 C17.66539747 39.07285229 17.66539747 39.07285229 12 24 C9.94906855 22.59533047 9.94906855 22.59533047 8 22 C8.33 20.68 8.66 19.36 9 18 C9.66 18.33 10.32 18.66 11 19 C11.45269465 14.92181076 11.45269465 14.92181076 8.6875 12.5 C7.800625 11.675 6.91375 10.85 6 10 C4.96854629 8.69084721 3.96457834 7.35917857 3 6 C2.443125 5.29875 1.88625 4.5975 1.3125 3.875 C0 2 0 2 0 0 Z " fill="#EA8349" transform="translate(118,246)"/>
<path d="M0 0 C1.80411967 2.75924185 2.0127245 3.88972103 1.625 7.25 C1.41875 8.1575 1.2125 9.065 1 10 C1.99 10 2.98 10 4 10 C4 15.61 4 21.22 4 27 C2.68 27 1.36 27 0 27 C-0.64027018 33.72747655 1.58297835 38.61484331 4.3125 44.6875 C4.71662109 45.62400391 5.12074219 46.56050781 5.53710938 47.52539062 C8.45302982 54.16799964 10.62654471 58.29450274 17 62 C22.62984496 66.25968992 22.62984496 66.25968992 24 69 C25.92355772 69.76279013 27.85102537 70.51784654 29.80078125 71.2109375 C34.11913186 72.76032795 38.16700256 74.44466837 42 77 C29.74314776 76.75486296 19.01802469 69.29970395 10.62890625 60.890625 C-0.53670659 48.61342812 -4.31756533 34.96072904 -4.23046875 18.65625 C-3.82115868 12.16278852 -2.04766703 6.1430011 0 0 Z " fill="#EB854A" transform="translate(69,234)"/>
<path d="M0 0 C1.485 0.99 1.485 0.99 3 2 C3 2.66 3 3.32 3 4 C3.99 4.33 4.98 4.66 6 5 C9.98779362 11.76934483 9.48277784 20.11786912 9.4375 27.6875 C9.45748047 28.88439453 9.47746094 30.08128906 9.49804688 31.31445312 C9.49426243 38.11510555 8.92503779 41.37538273 5 47 C4.40338745 50.80494603 4.39453544 54.59145936 4.375 58.4375 C4.2916202 64.97864507 4.18278989 70.79214555 2 77 C0.81318274 73.43954823 0.90310168 70.56191663 0.9375 66.8125 C0.94652344 65.54019531 0.95554688 64.26789063 0.96484375 62.95703125 C0.97644531 61.98121094 0.98804688 61.00539063 1 60 C0.34 59.67 -0.32 59.34 -1 59 C-0.67 58.01 -0.34 57.02 0 56 C0.33 56 0.66 56 1 56 C1 51.05 1 46.1 1 41 C1.99 40.505 1.99 40.505 3 40 C3 39.01 3 38.02 3 37 C3.66 37.33 4.32 37.66 5 38 C4.94780133 33.66571077 4.85264407 29.33336493 4.75 25 C4.73582031 23.77925781 4.72164062 22.55851562 4.70703125 21.30078125 C4.51028704 14.02124541 3.69654456 9.26933957 0 3 C0 2.01 0 1.02 0 0 Z " fill="#F77D38" transform="translate(166,229)"/>
<path d="M0 0 C0.33 0.66 0.66 1.32 1 2 C1.66 2.33 2.32 2.66 3 3 C2.67 3.66 2.34 4.32 2 5 C2.020625 6.093125 2.04125 7.18625 2.0625 8.3125 C2.00120931 11.92865076 1.41412572 13.75582922 0 17 C-0.37593066 18.9924325 -0.71979545 20.9918674 -1 23 C-1.66 23 -2.32 23 -3 23 C-3 26.3 -3 29.6 -3 33 C-4.485 32.505 -4.485 32.505 -6 32 C-6 30.68 -6 29.36 -6 28 C-6.76183594 28.03480469 -7.52367188 28.06960938 -8.30859375 28.10546875 C-14.79015465 28.27539731 -21.22096323 28.33564355 -27 25 C-27.33 24.01 -27.66 23.02 -28 22 C-28.66 21.67 -29.32 21.34 -30 21 C-27.8537974 21.14029419 -25.70803782 21.28738164 -23.5625 21.4375 C-22.36753906 21.51871094 -21.17257813 21.59992188 -19.94140625 21.68359375 C-17 22 -17 22 -16 23 C-14.31816052 23.23287008 -12.6287584 23.41264166 -10.9375 23.5625 C-10.01839844 23.64628906 -9.09929687 23.73007812 -8.15234375 23.81640625 C-7.08693359 23.90728516 -7.08693359 23.90728516 -6 24 C-5.566875 22.2984375 -5.566875 22.2984375 -5.125 20.5625 C-4.75375 19.386875 -4.3825 18.21125 -4 17 C-3.34 16.67 -2.68 16.34 -2 16 C-1.52402634 13.29400158 -1.15906371 10.66404596 -0.875 7.9375 C-0.78863281 7.17888672 -0.70226562 6.42027344 -0.61328125 5.63867188 C-0.40060483 3.76003014 -0.19924541 1.88011364 0 0 Z " fill="#F87E3A" transform="translate(129,283)"/>
<path d="M0 0 C0.99 0.33 1.98 0.66 3 1 C2.01 1.33 1.02 1.66 0 2 C0.78130071 4.49552484 0.78130071 4.49552484 2 7 C2.99 7.33 3.98 7.66 5 8 C10.52195207 14.99286506 12.77836646 21.43046656 12.83203125 30.28515625 C12.78564127 33.22257737 12.78564127 33.22257737 15 36 C13.68 35.34 12.36 34.68 11 34 C11 30.7 11 27.4 11 24 C10.34 24 9.68 24 9 24 C8.34 27.3 7.68 30.6 7 34 C6.67 34 6.34 34 6 34 C6.020625 32.88882813 6.04125 31.77765625 6.0625 30.6328125 C6.00956324 20.17368523 4.58367591 14.64257825 -3 7 C-4.43271892 5.04629238 -5.70588735 3.0490117 -7 1 C-5.5459375 1.0309375 -5.5459375 1.0309375 -4.0625 1.0625 C-1.12534105 1.35618499 -1.12534105 1.35618499 0 0 Z " fill="#FA7D3D" transform="translate(99,207)"/>
<path d="M0 0 C1.125 3.75 1.125 3.75 0 6 C-0.66 6 -1.32 6 -2 6 C-2 12.93 -2 19.86 -2 27 C-1.34 27 -0.68 27 0 27 C0 28.32 0 29.64 0 31 C0.66 31 1.32 31 2 31 C3.76171875 33.51953125 3.76171875 33.51953125 5.6875 36.8125 C6.33074219 37.89144531 6.97398438 38.97039062 7.63671875 40.08203125 C9 43 9 43 8 46 C-0.46582064 35.51750745 -5.6655073 25.67154553 -5.37109375 11.97265625 C-4.97226671 8.77784172 -4.11789394 6.01247726 -3 3 C-5.6855594 5.6855594 -6.06049974 8.37621328 -7 12 C-7.33 12 -7.66 12 -8 12 C-6.88767123 2.46575342 -6.88767123 2.46575342 -6 0 C-3.50907189 -1.24546405 -2.58919267 -0.7767578 0 0 Z " fill="#DF8553" transform="translate(121,192)"/>
<path d="M0 0 C4.95 0.99 4.95 0.99 10 2 C10 2.66 10 3.32 10 4 C11.30324219 3.91298828 11.30324219 3.91298828 12.6328125 3.82421875 C23.21881578 3.40977791 23.21881578 3.40977791 26.5 6.1875 C27.325 7.115625 28.15 8.04375 29 9 C29.845625 9.825 30.69125 10.65 31.5625 11.5 C32.366875 12.325 33.17125 13.15 34 14 C35.2684375 15.1446875 35.2684375 15.1446875 36.5625 16.3125 C39.45901484 19.50609329 41.66976621 22.87109251 43 27 C42.505 28.485 42.505 28.485 42 30 C41.16121545 28.71186658 40.32913217 27.41936744 39.5 26.125 C39.0359375 25.40570313 38.571875 24.68640625 38.09375 23.9453125 C37 22 37 22 37 20 C36.401875 19.731875 35.80375 19.46375 35.1875 19.1875 C33.00152146 18.00082594 31.58667406 16.90400887 30 15 C30 14.34 30 13.68 30 13 C29.443125 12.7525 28.88625 12.505 28.3125 12.25 C26 11 26 11 23.7890625 8.953125 C20.32679864 6.52857048 18.24934609 6.53636783 14.0625 6.5 C8.362272 6.25502165 5.16816633 5.9299854 1 2 C0.67 1.34 0.34 0.68 0 0 Z " fill="#EC854D" transform="translate(81,244)"/>
<path d="M0 0 C0.5775 0.226875 1.155 0.45375 1.75 0.6875 C0.821875 1.05875 -0.10625 1.43 -1.0625 1.8125 C-4.99932461 4.12827918 -5.85568245 5.34962319 -7.25 9.6875 C-7.96429162 16.89844399 -6.95095253 23.68625791 -5.25 30.6875 C-6.57 30.3575 -7.89 30.0275 -9.25 29.6875 C-9.229375 30.76 -9.20875 31.8325 -9.1875 32.9375 C-9.2357984 35.83540424 -9.38155885 37.97362141 -10.25 40.6875 C-11.24 40.6875 -12.23 40.6875 -13.25 40.6875 C-13.25 37.3875 -13.25 34.0875 -13.25 30.6875 C-12.26 30.3575 -11.27 30.0275 -10.25 29.6875 C-10.23541748 29.08276855 -10.22083496 28.47803711 -10.20581055 27.85498047 C-10.13090812 25.09020735 -10.03438927 22.32658643 -9.9375 19.5625 C-9.91494141 18.61117187 -9.89238281 17.65984375 -9.86914062 16.6796875 C-9.62692663 10.33808459 -9.00206584 5.43956584 -4.3125 0.75 C-2.25 -0.3125 -2.25 -0.3125 0 0 Z " fill="#F6732C" transform="translate(83.25,203.3125)"/>
<path d="M0 0 C2 2 2 2 2 5 C2.928125 5.2784375 2.928125 5.2784375 3.875 5.5625 C6 7 6 7 6.9375 10.3125 C8.15703972 14.5450202 9.73125261 16.13984603 13 19 C15 21 15 21 15.4375 22.9375 C16.10356162 25.37972594 17.11604329 26.36177677 19 28 C18.01 28.33 17.02 28.66 16 29 C16 28.34 16 27.68 16 27 C15.40703125 26.7421875 14.8140625 26.484375 14.203125 26.21875 C11.82339035 24.90230105 10.49021208 23.57419218 8.75 21.5 C8.22921875 20.8915625 7.7084375 20.283125 7.171875 19.65625 C6 18 6 18 6 16 C5.34 16 4.68 16 4 16 C2.50178941 12.62902617 2 10.79557881 2 7 C1.34 6.67 0.68 6.34 0 6 C0 4.02 0 2.04 0 0 Z " fill="#F87935" transform="translate(111,216)"/>
<path d="M0 0 C2 3 2 3 1.79296875 5.19140625 C1.49326172 6.36509766 1.49326172 6.36509766 1.1875 7.5625 C0.99542969 8.34753906 0.80335938 9.13257813 0.60546875 9.94140625 C0 12 0 12 -1 14 C-1.12915032 15.65715663 -1.20233239 17.31886325 -1.24609375 18.98046875 C-1.27896484 19.98013672 -1.31183594 20.97980469 -1.34570312 22.00976562 C-1.40633412 24.10863015 -1.46368897 26.20759218 -1.51757812 28.30664062 C-1.70691425 33.88312544 -2.15614756 38.72225233 -4 44 C-5.18681726 40.43954823 -5.09689832 37.56191663 -5.0625 33.8125 C-5.05347656 32.54019531 -5.04445312 31.26789063 -5.03515625 29.95703125 C-5.02355469 28.98121094 -5.01195312 28.00539063 -5 27 C-5.66 26.67 -6.32 26.34 -7 26 C-6.505 24.515 -6.505 24.515 -6 23 C-5.67 23 -5.34 23 -5 23 C-5 18.05 -5 13.1 -5 8 C-4.67 9.32 -4.34 10.64 -4 12 C-3.34 11.67 -2.68 11.34 -2 11 C-1.30906104 8.42048126 -1.30906104 8.42048126 -0.875 5.4375 C-0.62363281 3.91962891 -0.62363281 3.91962891 -0.3671875 2.37109375 C-0.24601563 1.58863281 -0.12484375 0.80617188 0 0 Z " fill="#F7712B" transform="translate(172,262)"/>
<path d="M0 0 C3 1 3 1 4.0625 2.890625 C4.371875 3.66921875 4.68125 4.4478125 5 5.25 C6.43314901 8.70706173 8.04642694 11.80324408 10 15 C10.69822617 16.65369357 11.37498605 18.31727014 12 20 C12.66 20 13.32 20 14 20 C14.2475 20.598125 14.495 21.19625 14.75 21.8125 C16.16444091 24.28777159 17.72860188 25.33430804 20 27 C20 27.66 20 28.32 20 29 C16.05085855 28.43583694 13.13228798 27.52323198 10 25 C9.62913819 23.00661779 9.30262289 21.00487668 9 19 C7.79522825 16.82167533 6.46369704 14.78829369 5.05859375 12.734375 C4 11 4 11 4 9 C3.34 9 2.68 9 2 9 C2 7.68 2 6.36 2 5 C1.34 5 0.68 5 0 5 C0 3.35 0 1.7 0 0 Z " fill="#F77732" transform="translate(119,214)"/>
<path d="M0 0 C0.5775 0.226875 1.155 0.45375 1.75 0.6875 C0.76 0.6875 -0.23 0.6875 -1.25 0.6875 C-1.518125 1.22375 -1.78625 1.76 -2.0625 2.3125 C-3.25 4.6875 -3.25 4.6875 -4.75 7.15625 C-6.77417081 11.92148544 -7.05890688 16.43586286 -7.4375 21.5625 C-7.51935547 22.53703125 -7.60121094 23.5115625 -7.68554688 24.515625 C-7.88470968 26.90557871 -8.07252246 29.29585472 -8.25 31.6875 C-9.735 32.1825 -9.735 32.1825 -11.25 32.6875 C-11.085 31.65625 -10.92 30.625 -10.75 29.5625 C-10.21644469 25.5643922 -10.31190184 21.71530306 -10.4375 17.6875 C-10.49158696 10.47848145 -9.28224051 5.81449803 -4.25 0.625 C-2.25 -0.3125 -2.25 -0.3125 0 0 Z " fill="#E6874F" transform="translate(81.25,201.3125)"/>
<path d="M0 0 C3.18844618 0.94791643 4.75485405 1.69765333 6.875 4.3125 C8.18017129 7.43040919 8.05534774 8.83395678 7 12 C6.67 12.33 6.34 12.66 6 13 C5.90105545 14.4346959 5.87029265 15.87440397 5.875 17.3125 C5.87242187 18.09238281 5.86984375 18.87226563 5.8671875 19.67578125 C5.91965829 21.95219914 5.91965829 21.95219914 6.50219727 23.90209961 C7.31083258 27.30994818 7.10248927 30.76785723 7.0625 34.25 C7.05798828 34.99507813 7.05347656 35.74015625 7.04882812 36.5078125 C7.03709246 38.3385764 7.0191585 40.16929873 7 42 C6.67 42 6.34 42 6 42 C6 37.71 6 33.42 6 29 C5.01 28.67 4.02 28.34 3 28 C3 22.39 3 16.78 3 11 C3.66 11 4.32 11 5 11 C5.39169887 8.33644766 5.40564529 6.60775627 3.88671875 4.33203125 C2.63610683 2.8489112 1.32135486 1.42045648 0 0 Z " fill="#F57530" transform="translate(142,258)"/>
<path d="M0 0 C1.0209375 0.00580078 1.0209375 0.00580078 2.0625 0.01171875 C4 0.3125 4 0.3125 7 2.3125 C7.546875 4.15234375 7.546875 4.15234375 7.75 6.25 C7.82734375 6.93964844 7.9046875 7.62929687 7.984375 8.33984375 C8 10.3125 8 10.3125 7 13.3125 C6.34 13.3125 5.68 13.3125 5 13.3125 C4.9175 12.03375 4.835 10.755 4.75 9.4375 C4.42338307 6.13457398 4.42338307 6.13457398 2.1875 3.8125 C-0.27591977 3.16395013 -0.27591977 3.16395013 -4 3.3125 C-4.99 5.6225 -5.98 7.9325 -7 10.3125 C-7.66 10.3125 -8.32 10.3125 -9 10.3125 C-9.33 11.9625 -9.66 13.6125 -10 15.3125 C-10.82707306 12.94261757 -11.12634 11.69519269 -10.328125 9.27734375 C-9.79445313 8.27380859 -9.79445313 8.27380859 -9.25 7.25 C-8.90453125 6.57839844 -8.5590625 5.90679687 -8.203125 5.21484375 C-5.91807355 1.60179161 -4.40953978 -0.10856821 0 0 Z " fill="#E9884A" transform="translate(118,186.6875)"/>
<path d="M0 0 C3 1 3 1 4.375 2.875 C6.30982614 5.40515726 8.25345175 6.40316962 11 8 C16.62984496 12.25968992 16.62984496 12.25968992 18 15 C19.92355772 15.76279013 21.85102537 16.51784654 23.80078125 17.2109375 C28.11913186 18.76032795 32.16700256 20.44466837 36 23 C23.35557083 22.74711142 13.05282611 14.99315904 4.328125 6.55078125 C2.34194963 4.37465287 1.08914534 2.70386662 0 0 Z " fill="#E18351" transform="translate(75,288)"/>
<path d="M0 0 C0.33 0.66 0.66 1.32 1 2 C1.66 2.33 2.32 2.66 3 3 C2.67 3.66 2.34 4.32 2 5 C2.020625 6.093125 2.04125 7.18625 2.0625 8.3125 C2.00120931 11.92865076 1.41412572 13.75582922 0 17 C-0.37593066 18.9924325 -0.71979545 20.9918674 -1 23 C-1.66 23 -2.32 23 -3 23 C-3 26.3 -3 29.6 -3 33 C-3.66 32.67 -4.32 32.34 -5 32 C-5 30.35 -5 28.7 -5 27 C-9.29 26.67 -13.58 26.34 -18 26 C-18 25.67 -18 25.34 -18 25 C-11.565 24.505 -11.565 24.505 -5 24 C-1.99230745 15.8501234 -0.3077895 8.67966399 0 0 Z " fill="#F6722B" transform="translate(129,283)"/>
<path d="M0 0 C1.09658936 3.28976808 0.79953138 4.71303767 0 8 C-0.33 8 -0.66 8 -1 8 C-1.33 11.63 -1.66 15.26 -2 19 C-4.35953094 16.64046906 -4.49141413 15.22104383 -5 12 C-7.31 11.34 -9.62 10.68 -12 10 C-11.67 9.01 -11.34 8.02 -11 7 C-9.5459375 6.5359375 -9.5459375 6.5359375 -8.0625 6.0625 C-4.89495953 5.31531979 -4.89495953 5.31531979 -3.625 2.875 C-3.41875 2.25625 -3.2125 1.6375 -3 1 C-2.67 2.32 -2.34 3.64 -2 5 C-1.34 3.35 -0.68 1.7 0 0 Z " fill="#F68343" transform="translate(113,196)"/>
<path d="M0 0 C1.32 0 2.64 0 4 0 C4 0.99 4 1.98 4 3 C4.63808594 3.06058594 5.27617187 3.12117188 5.93359375 3.18359375 C6.75988281 3.26738281 7.58617187 3.35117187 8.4375 3.4375 C9.67306641 3.55931641 9.67306641 3.55931641 10.93359375 3.68359375 C13 4 13 4 14 5 C14.04080783 6.99958364 14.04254356 9.00045254 14 11 C13.76539063 10.37609375 13.53078125 9.7521875 13.2890625 9.109375 C11.63176925 6.39744059 10.3858401 6.11024003 7.375 5.25 C6.55773437 5.00765625 5.74046875 4.7653125 4.8984375 4.515625 C4.27195313 4.34546875 3.64546875 4.1753125 3 4 C2.855625 4.969375 2.71125 5.93875 2.5625 6.9375 C2 10 2 10 1 11 C0.63239269 13.32817964 0.29758419 15.6618385 0 18 C-0.33 18 -0.66 18 -1 18 C-1.02684312 15.18743719 -1.04676188 12.37512759 -1.0625 9.5625 C-1.07087891 8.76005859 -1.07925781 7.95761719 -1.08789062 7.13085938 C-1.0965143 5.08704779 -1.0522815 3.04316098 -1 1 C-0.67 0.67 -0.34 0.34 0 0 Z M2 2 C3 4 3 4 3 4 Z " fill="#E8854E" transform="translate(150,260)"/>
<path d="M0 0 C5.47654992 5.47654992 5.14907952 15.03566168 5.1875 22.3125 C5.13247059 30.26031938 4.39503568 37.72492353 1 45 C0.67 45 0.34 45 0 45 C-0.25 39.375 -0.25 39.375 2 36 C2.30930005 33.17405196 2.30930005 33.17405196 2.265625 29.9765625 C2.26820313 28.790625 2.27078125 27.6046875 2.2734375 26.3828125 C2.26570312 25.14273437 2.25796875 23.90265625 2.25 22.625 C2.25773438 21.39265625 2.26546875 20.1603125 2.2734375 18.890625 C2.27085937 17.70210937 2.26828125 16.51359375 2.265625 15.2890625 C2.26336914 14.20318848 2.26111328 13.11731445 2.25878906 11.99853516 C1.99447928 8.93603258 1.17398449 6.81371556 0 4 C0 2.68 0 1.36 0 0 Z " fill="#DD8554" transform="translate(172,234)"/>
<path d="M0 0 C1.54242862 2.31364293 2.7031573 4.38604485 3.875 6.875 C6.13618817 11.39737635 8.02958805 15.05957612 12.75 17.3125 C16.63924376 18.13522464 20.03063742 18.13687457 24 18 C24 18.33 24 18.66 24 19 C10.99542543 20.74656908 10.99542543 20.74656908 6 17 C2.3901714 13.3901714 0.06363012 9.0000556 -1 4 C-0.57421875 1.75390625 -0.57421875 1.75390625 0 0 Z " fill="#E58554" transform="translate(78,225)"/>
<path d="M0 0 C0.33 0 0.66 0 1 0 C0.67 5.28 0.34 10.56 0 16 C0.66 16 1.32 16 2 16 C2.22786458 18.05078125 2.45572917 20.1015625 2.68359375 22.15234375 C2.81886614 24.01140229 2.81886614 24.01140229 4 25 C4.23287008 26.68183948 4.41264166 28.3712416 4.5625 30.0625 C4.64628906 30.98160156 4.73007813 31.90070313 4.81640625 32.84765625 C4.87699219 33.55792969 4.93757813 34.26820313 5 35 C-0.83053009 28.33653704 -1.44925351 21.1246408 -1.25 12.6875 C-1.24484375 11.79482422 -1.2396875 10.90214844 -1.234375 9.98242188 C-1.15594506 3.46783519 -1.15594506 3.46783519 0 0 Z " fill="#F77531" transform="translate(69,245)"/>
<path d="M0 0 C1.125 3.75 1.125 3.75 0 6 C-0.66 6 -1.32 6 -2 6 C-2 10.29 -2 14.58 -2 19 C-2.66 19 -3.32 19 -4 19 C-4.85330338 13.16524985 -5.48351814 8.55139349 -3 3 C-5.6855594 5.6855594 -6.06049974 8.37621328 -7 12 C-7.33 12 -7.66 12 -8 12 C-6.88767123 2.46575342 -6.88767123 2.46575342 -6 0 C-3.50907189 -1.24546405 -2.58919267 -0.7767578 0 0 Z " fill="#F28545" transform="translate(121,192)"/>
<path d="M0 0 C2 0 2 0 3.9375 1.6875 C6 4 6 4 7.5625 6.625 C8.92617739 9.25743604 8.92617739 9.25743604 12 11 C12 11.66 12 12.32 12 13 C12.99 13 13.98 13 15 13 C16.60546875 14.42578125 16.60546875 14.42578125 18.1875 16.3125 C18.71730469 16.92738281 19.24710938 17.54226562 19.79296875 18.17578125 C21 20 21 20 21 23 C17.18063472 21.44396229 14.73955562 19.04395069 12 16 C12 15.34 12 14.68 12 14 C11.34 14 10.68 14 10 14 C8.41466298 12.28667246 6.90458785 10.50310953 5.4375 8.6875 C4.63183594 7.70136719 3.82617188 6.71523437 2.99609375 5.69921875 C1 3 1 3 0 0 Z " fill="#E28552" transform="translate(115,232)"/>
<path d="M0 0 C0.99 0.33 1.98 0.66 3 1 C3 1.66 3 2.32 3 3 C4.32 3.33 5.64 3.66 7 4 C6.67 5.65 6.34 7.3 6 9 C5.01 8.67 4.02 8.34 3 8 C3 13.94 3 19.88 3 26 C2.34 26 1.68 26 1 26 C1.01160156 25.04480469 1.02320313 24.08960938 1.03515625 23.10546875 C1.08939161 15.33431699 0.90018566 7.73195186 0 0 Z " fill="#F97F3F" transform="translate(161,277)"/>
<path d="M0 0 C3.73209538 5.59814306 4.27269478 11.45532538 4 18 C2.68 18 1.36 18 0 18 C-0.66666667 13.33333333 -1.33333333 8.66666667 -2 4 C-1.34 4 -0.68 4 0 4 C0 2.68 0 1.36 0 0 Z " fill="#F57836" transform="translate(130,272)"/>
<path d="M0 0 C4.42857143 5.14285714 4.42857143 5.14285714 5 9 C5.66 9 6.32 9 7 9 C8.65625 10.828125 8.65625 10.828125 10.5 13.25 C11.1084375 14.03890625 11.716875 14.8278125 12.34375 15.640625 C13.79739033 17.71137679 14.94765743 19.7058932 16 22 C14.68 21.67 13.36 21.34 12 21 C12 20.34 12 19.68 12 19 C11.01 18.67 10.02 18.34 9 18 C8.71125 17.2575 8.4225 16.515 8.125 15.75 C6.72208911 12.32066227 4.69962474 10.49715289 2 8 C0 6 0 6 -0.125 2.875 C-0.08375 1.92625 -0.0425 0.9775 0 0 Z " fill="#E88049" transform="translate(117,223)"/>
<path d="M0 0 C0.66 0 1.32 0 2 0 C2.125 2.875 2.125 2.875 2 6 C1.34 6.66 0.68 7.32 0 8 C-0.9590625 7.7525 -0.9590625 7.7525 -1.9375 7.5 C-2.618125 7.335 -3.29875 7.17 -4 7 C-4.99 7.66 -5.98 8.32 -7 9 C-9.1875 8.625 -9.1875 8.625 -11 8 C-11.33 8.66 -11.66 9.32 -12 10 C-12.66 10 -13.32 10 -14 10 C-13.67 8.35 -13.34 6.7 -13 5 C-12.22914063 4.97421875 -11.45828125 4.9484375 -10.6640625 4.921875 C-9.66117188 4.86515625 -8.65828125 4.8084375 -7.625 4.75 C-6.62726563 4.70359375 -5.62953125 4.6571875 -4.6015625 4.609375 C-1.8473523 4.27839115 -1.8473523 4.27839115 -0.6484375 1.953125 C-0.43445313 1.30859375 -0.22046875 0.6640625 0 0 Z " fill="#E98854" transform="translate(162,303)"/>
<path d="M0 0 C3.28798303 0.9070298 4.04286888 2.07502055 5.75 5.0625 C7.27203593 9.56207071 7.28662096 14.04747936 7.3125 18.75 C7.31797852 19.49515869 7.32345703 20.24031738 7.32910156 21.00805664 C7.27939524 24.80587701 7.12617351 27.78109189 5 31 C5.02320313 30.18917969 5.04640625 29.37835938 5.0703125 28.54296875 C5.23609587 18.37097459 4.50736167 9.21960342 0 0 Z " fill="#E18759" transform="translate(130,269)"/>
<path d="M0 0 C0.66 0.33 1.32 0.66 2 1 C2.28926947 3.02488628 2.57272154 5.05244016 2.75390625 7.08984375 C2.90406878 9.08252033 2.90406878 9.08252033 4 11 C3.01 12.485 3.01 12.485 2 14 C1.34 12.35 0.68 10.7 0 9 C-0.66 9 -1.32 9 -2 9 C-2.33 10.98 -2.66 12.96 -3 15 C-4.37432457 11.18243176 -3.67975039 7.92744671 -3 4 C-2.01 4 -1.02 4 0 4 C0 2.68 0 1.36 0 0 Z " fill="#F97F3B" transform="translate(77,229)"/>
<path d="M0 0 C2 2 2 2 2.01171875 4.8984375 C1.90472656 6.04570312 1.79773438 7.19296875 1.6875 8.375 C1.58824219 9.51710937 1.48898438 10.65921875 1.38671875 11.8359375 C1.0827845 14.32267223 0.69153712 16.60030708 0 19 C-0.99 19 -1.98 19 -3 19 C-3 15.7 -3 12.4 -3 9 C-2.01 8.67 -1.02 8.34 0 8 C0 5.36 0 2.72 0 0 Z " fill="#F87C38" transform="translate(73,225)"/>
<path d="M0 0 C0.33 0.66 0.66 1.32 1 2 C1.99 2.33 2.98 2.66 4 3 C3.01 3.495 3.01 3.495 2 4 C3.32 4.33 4.64 4.66 6 5 C6 5.66 6 6.32 6 7 C3.36 7 0.72 7 -2 7 C-1.67 10.63 -1.34 14.26 -1 18 C-3 16 -3 16 -3.23046875 13.25 C-3.21628906 12.1775 -3.20210938 11.105 -3.1875 10 C-3.18105469 8.9275 -3.17460938 7.855 -3.16796875 6.75 C-3 4 -3 4 -2 2 C-1.34 2 -0.68 2 0 2 C0 1.34 0 0.68 0 0 Z " fill="#F56D26" transform="translate(122,198)"/>
<path d="M0 0 C5.99892698 5.51252749 8.03276804 9.59786445 8.5625 17.6875 C8.60503906 18.80511719 8.64757812 19.92273438 8.69140625 21.07421875 C8.79104335 24.18962682 8.79104335 24.18962682 11 27 C9.06640625 26.45703125 9.06640625 26.45703125 7 25 C6.44596035 22.46938646 6.12046299 20.24654242 5.9375 17.6875 C5.55427435 12.8096525 5.02239371 9.01729637 2 5 C1.34 4.67 0.68 4.34 0 4 C0 2.68 0 1.36 0 0 Z " fill="#DD8657" transform="translate(103,216)"/>
<path d="M0 0 C1.98 0.99 1.98 0.99 4 2 C4 3.32 4 4.64 4 6 C3.34 6 2.68 6 2 6 C2.08378906 6.556875 2.16757813 7.11375 2.25390625 7.6875 C2.97056584 13.05791108 2.87482711 17.65383432 2 23 C1.67 23 1.34 23 1 23 C0.13396357 19.24486603 -0.16336696 15.72663242 -0.1875 11.875 C-0.20167969 10.84117187 -0.21585938 9.80734375 -0.23046875 8.7421875 C0 6 0 6 2 3 C1.34 2.01 0.68 1.02 0 0 Z " fill="#E68753" transform="translate(143,263)"/>
<path d="M0 0 C0.99 0.33 1.98 0.66 3 1 C2.67 2.98 2.34 4.96 2 7 C2.66 7 3.32 7 4 7 C6.23269231 13.45 6.23269231 13.45 5.0546875 16.234375 C4.70664063 16.81703125 4.35859375 17.3996875 4 18 C3.32187886 16.1291122 2.6580054 14.25305707 2 12.375 C1.443125 10.80878906 1.443125 10.80878906 0.875 9.2109375 C-0.00483564 5.98225494 -0.15988262 3.32755706 0 0 Z " fill="#F58046" transform="translate(120,205)"/>
<path d="M0 0 C0.12375 0.78375 0.2475 1.5675 0.375 2.375 C0.79117993 5.14057822 0.79117993 5.14057822 3 7 C1.125 6.75 1.125 6.75 -1 6 C-2.25 3.9375 -2.25 3.9375 -3 2 C-3.391875 2.391875 -3.78375 2.78375 -4.1875 3.1875 C-6.45833333 5.45833333 -8.72916667 7.72916667 -11 10 C-10.67 8.35 -10.34 6.7 -10 5 C-9.34 5 -8.68 5 -8 5 C-7.87625 4.360625 -7.7525 3.72125 -7.625 3.0625 C-7.41875 2.381875 -7.2125 1.70125 -7 1 C-4.53721199 -0.231394 -2.7204945 -0.07159196 0 0 Z " fill="#E18656" transform="translate(145,307)"/>
<path d="M0 0 C4.18423892 3.50897269 8.19588166 7.08060535 12 11 C11.67 11.99 11.34 12.98 11 14 C10.34 13.01 9.68 12.02 9 11 C6.94996045 9.80767387 6.94996045 9.80767387 5 9 C5 8.34 5 7.68 5 7 C4.38125 6.731875 3.7625 6.46375 3.125 6.1875 C1 5 1 5 -1 2 C-0.67 1.34 -0.34 0.68 0 0 Z " fill="#F1913F" transform="translate(136,253)"/>
<path d="M0 0 C4.74251497 1.66866267 4.74251497 1.66866267 7 3 C8.1875 5.5 8.1875 5.5 9 8 C10.30518475 9.03647024 11.63461347 10.04422943 13 11 C13 11.66 13 12.32 13 13 C9.36938333 11.46781315 7.0136227 9.2816856 4.25 6.5 C3.45078125 5.7059375 2.6515625 4.911875 1.828125 4.09375 C0 2 0 2 0 0 Z " fill="#F57732" transform="translate(79,288)"/>
<path d="M0 0 C0.33 0 0.66 0 1 0 C1.12867289 8.06350113 0.79681084 15.97497656 0 24 C-0.99 24 -1.98 24 -3 24 C-2.01 16.08 -1.02 8.16 0 0 Z " fill="#FC7D3E" transform="translate(154,284)"/>
<path d="M0 0 C0.33 0.66 0.66 1.32 1 2 C1.66 2 2.32 2 3 2 C6.34645017 5.08225674 9.2239921 8.40147125 12 12 C11.4225 11.690625 10.845 11.38125 10.25 11.0625 C8.15705816 10.07416636 6.25464725 9.4831387 4 9 C4 8.34 4 7.68 4 7 C3.34 7 2.68 7 2 7 C2 6.34 2 5.68 2 5 C1.34 5 0.68 5 0 5 C0 3.35 0 1.7 0 0 Z " fill="#E9864D" transform="translate(145,246)"/>
<path d="M0 0 C4.95 0.99 4.95 0.99 10 2 C9.01 2.495 9.01 2.495 8 3 C8 3.66 8 4.32 8 5 C12.29 5 16.58 5 21 5 C21 5.33 21 5.66 21 6 C7.03316327 6.68877551 7.03316327 6.68877551 3.1875 4.125 C1 2 1 2 0 0 Z " fill="#DF864E" transform="translate(81,244)"/>
<path d="M0 0 C0.33 0 0.66 0 1 0 C0.67 3.63 0.34 7.26 0 11 C-1.65 11.33 -3.3 11.66 -5 12 C-5.33 11.34 -5.66 10.68 -6 10 C-4.68 10 -3.36 10 -2 10 C-2.061875 8.081875 -2.061875 8.081875 -2.125 6.125 C-2.1953125 3.9453125 -2.1953125 3.9453125 -2 2 C-1.34 1.34 -0.68 0.68 0 0 Z " fill="#E58A56" transform="translate(171,297)"/>
<path d="M0 0 C0.33 0 0.66 0 1 0 C1.02722517 2.20826378 1.04649729 4.41662638 1.0625 6.625 C1.07410156 7.85476563 1.08570313 9.08453125 1.09765625 10.3515625 C1.00863924 13.67723791 0.63686087 16.74047588 0 20 C-0.99 20.33 -1.98 20.66 -3 21 C-3 19.35 -3 17.7 -3 16 C-2.34 16 -1.68 16 -1 16 C-0.67 10.72 -0.34 5.44 0 0 Z " fill="#F28349" transform="translate(137,284)"/>
<path d="M0 0 C-1.65 0.66 -3.3 1.32 -5 2 C-4.2265625 3.175625 -4.2265625 3.175625 -3.4375 4.375 C-2.963125 5.24125 -2.48875 6.1075 -2 7 C-2.33 7.66 -2.66 8.32 -3 9 C-5.31 6.36 -7.62 3.72 -10 1 C-6.41631413 -0.79184293 -3.82245883 -1.27415294 0 0 Z " fill="#F3752B" transform="translate(102,208)"/>
<path d="M0 0 C3.226345 3.80247803 5.77535219 7.55070439 8 12 C7.67 12.99 7.34 13.98 7 15 C3.13521815 10.60214479 0 6.02718405 0 0 Z " fill="#EC834C" transform="translate(122,223)"/>
<path d="M0 0 C3.59634744 3.49359465 6.83451967 7.11098131 10 11 C9.67 11.66 9.34 12.32 9 13 C4.96882447 9.93280123 2.44912276 8.00606045 1 3 C0.67 2.01 0.34 1.02 0 0 Z " fill="#E08854" transform="translate(159,215)"/>
<path d="M0 0 C0 3.96 0 7.92 0 12 C-2 10 -2 10 -2.375 7.5 C-2.73647686 4.83529804 -2.73647686 4.83529804 -5.0625 3.6875 C-5.701875 3.460625 -6.34125 3.23375 -7 3 C-1.125 0 -1.125 0 0 0 Z " fill="#F5732E" transform="translate(111,203)"/>
<path d="M0 0 C0.33 0.66 0.66 1.32 1 2 C0.06421005 4.35981813 -0.93347808 6.69631264 -2 9 C-2.66 9 -3.32 9 -4 9 C-4.33 10.65 -4.66 12.3 -5 14 C-5.84566329 11.5976699 -6.12831471 10.37572815 -5.29296875 7.9296875 C-4.92816406 7.25164062 -4.56335938 6.57359375 -4.1875 5.875 C-3.83042969 5.19179687 -3.47335938 4.50859375 -3.10546875 3.8046875 C-2 2 -2 2 0 0 Z " fill="#DE8557" transform="translate(113,188)"/>
<path d="M0 0 C2.57945213 2.9954928 4.17360993 5.14351301 5 9 C5.66 9.33 6.32 9.66 7 10 C3 10 3 10 1.25 8.375 C-0.30380397 5.42277246 -0.22432841 3.29014997 0 0 Z " fill="#EB8552" transform="translate(117,223)"/>
<path d="M0 0 C0.33 0 0.66 0 1 0 C1 4.62 1 9.24 1 14 C2.32 14.33 3.64 14.66 5 15 C3.02 15.66 1.04 16.32 -1 17 C-0.67 11.39 -0.34 5.78 0 0 Z " fill="#F98142" transform="translate(140,287)"/>
<path d="M0 0 C2.52230627 1.26115314 2.88890155 2.37533425 4.125 4.875 C4.47820312 5.57367188 4.83140625 6.27234375 5.1953125 6.9921875 C6 9 6 9 6 12 C0.11816193 5.92560175 0.11816193 5.92560175 -0.375 2.0625 C-0.25125 1.381875 -0.1275 0.70125 0 0 Z " fill="#E18E52" transform="translate(125,219)"/>
<path d="M0 0 C6.4 0.49230769 6.4 0.49230769 9.4375 3.0625 C10.2109375 4.0215625 10.2109375 4.0215625 11 5 C10.67 5.66 10.34 6.32 10 7 C8.88625 6.2884375 8.88625 6.2884375 7.75 5.5625 C5.18059651 3.92458215 5.18059651 3.92458215 2.75 3.5 C2.1725 3.335 1.595 3.17 1 3 C0.67 2.01 0.34 1.02 0 0 Z " fill="#F7752E" transform="translate(142,208)"/>
<path d="M0 0 C2.64 0.33 5.28 0.66 8 1 C8 1.66 8 2.32 8 3 C6.34385343 3.38218767 4.67542976 3.71395102 3 4 C2.67 3.67 2.34 3.34 2 3 C1.67 3.66 1.34 4.32 1 5 C0.34 5 -0.32 5 -1 5 C-0.67 3.35 -0.34 1.7 0 0 Z " fill="#DD8354" transform="translate(149,308)"/>
<path d="M0 0 C1.485 0.99 1.485 0.99 3 2 C3 2.66 3 3.32 3 4 C3.99 4.33 4.98 4.66 6 5 C5.67 6.32 5.34 7.64 5 9 C1.7457985 6.16569547 0.4793247 4.31392226 0 0 Z " fill="#F77738" transform="translate(166,229)"/>
<path d="M0 0 C0 0.99 0 1.98 0 3 C-0.680625 3.61875 -0.680625 3.61875 -1.375 4.25 C-3.75529009 6.81338933 -4.18032075 9.65823073 -5 13 C-5.33 13 -5.66 13 -6 13 C-4.88767123 3.46575342 -4.88767123 3.46575342 -4 1 C-2 0 -2 0 0 0 Z " fill="#E77E4A" transform="translate(119,191)"/>
<path d="M0 0 C3.46069717 5.19104576 4.17386794 6.77849991 3 13 C1.32889958 10.03821227 0.67317248 7.62928808 0.375 4.25 C0.30023438 3.45078125 0.22546875 2.6515625 0.1484375 1.828125 C0.09945312 1.22484375 0.05046875 0.6215625 0 0 Z " fill="#EB8250" transform="translate(164,271)"/>
<path d="M0 0 C2.29633824 3.44450737 2.54016485 5.93812283 3 10 C2.34 10 1.68 10 1 10 C-1.42857143 3.71428571 -1.42857143 3.71428571 0 0 Z " fill="#E38454" transform="translate(130,272)"/>
<path d="M0 0 C0.33 0 0.66 0 1 0 C1 5.61 1 11.22 1 17 C0.01 16.67 -0.98 16.34 -2 16 C-1.67 15.34 -1.34 14.68 -1 14 C-0.76970044 11.62876754 -0.58880058 9.25258057 -0.4375 6.875 C-0.35371094 5.59367188 -0.26992187 4.31234375 -0.18359375 2.9921875 C-0.09271484 1.51105469 -0.09271484 1.51105469 0 0 Z " fill="#DF8454" transform="translate(170,250)"/>
<path d="M0 0 C2.31 0 4.62 0 7 0 C6.67 1.32 6.34 2.64 6 4 C5.01 3.34 4.02 2.68 3 2 C3 2.66 3 3.32 3 4 C2.01 3.67 1.02 3.34 0 3 C0 2.01 0 1.02 0 0 Z " fill="#F88538" transform="translate(138,245)"/>
<path d="M0 0 C3.68598133 0.99621117 4.78257889 1.6272781 6.75 5 C7.1625 5.99 7.575 6.98 8 8 C8.33 8.66 8.66 9.32 9 10 C7.68 9.34 6.36 8.68 5 8 C5 7.01 5 6.02 5 5 C4.34 5 3.68 5 3 5 C1.375 2.5 1.375 2.5 0 0 Z " fill="#F08245" transform="translate(128,229)"/>
<path d="M0 0 C3.28788824 3.11016455 5.83735988 6.01618925 8 10 C6.68 9.34 5.36 8.68 4 8 C4 7.34 4 6.68 4 6 C3.01 6 2.02 6 1 6 C0.67 4.02 0.34 2.04 0 0 Z " fill="#DF8A52" transform="translate(78,281)"/>
<path d="M0 0 C1.875 0.3125 1.875 0.3125 4 1 C4.66 1.99 5.32 2.98 6 4 C5.67 4.99 5.34 5.98 5 7 C4.34 5.35 3.68 3.7 3 2 C2.34 2 1.68 2 1 2 C0.67 3.98 0.34 5.96 0 8 C-0.98120464 4.94736336 -0.98120464 3.05263664 0 0 Z " fill="#E08455" transform="translate(74,236)"/>
<path d="M0 0 C0 2.31 0 4.62 0 7 C-1.32 7 -2.64 7 -4 7 C-4 3 -4 3 -2.5625 1.25 C-1 0 -1 0 0 0 Z " fill="#F58A42" transform="translate(134,283)"/>
<path d="M0 0 C0.99 0.33 1.98 0.66 3 1 C3.625 3.875 3.625 3.875 4 7 C3.34 7.66 2.68 8.32 2 9 C2 7.68 2 6.36 2 5 C1.34 5 0.68 5 0 5 C0 3.35 0 1.7 0 0 Z " fill="#FA7936" transform="translate(119,214)"/>
<path d="M0 0 C0.66 0 1.32 0 2 0 C2.268125 0.61875 2.53625 1.2375 2.8125 1.875 C3.95556848 4.2995233 3.95556848 4.2995233 7 6 C6.01 7.485 6.01 7.485 5 9 C4.16094435 7.87926138 3.32892169 6.75325453 2.5 5.625 C2.0359375 4.99851563 1.571875 4.37203125 1.09375 3.7265625 C0 2 0 2 0 0 Z " fill="#FB7E41" transform="translate(97,210)"/>
<path d="M0 0 C4.55384615 -0.36923077 4.55384615 -0.36923077 6.8125 1.5 C7.204375 1.995 7.59625 2.49 8 3 C7.67 3.66 7.34 4.32 7 5 C4.0625 4.1875 4.0625 4.1875 1 3 C0.67 2.01 0.34 1.02 0 0 Z " fill="#E48F58" transform="translate(86,201)"/>
<path d="M0 0 C1.31602523 0.61754259 2.62773556 1.24428742 3.9375 1.875 C4.66839844 2.22304687 5.39929688 2.57109375 6.15234375 2.9296875 C8 4 8 4 9 6 C6.36 5.34 3.72 4.68 1 4 C0.67 2.68 0.34 1.36 0 0 Z " fill="#E18357" transform="translate(144,205)"/>
<path d="M0 0 C0.8971875 0.309375 0.8971875 0.309375 1.8125 0.625 C0.8225 0.625 -0.1675 0.625 -1.1875 0.625 C-1.5175 1.615 -1.8475 2.605 -2.1875 3.625 C-4.75 4.8125 -4.75 4.8125 -7.1875 5.625 C-5.69046729 2.17030914 -4.27938051 -0.73360809 0 0 Z " fill="#DE7F50" transform="translate(81.1875,201.375)"/>
<path d="M0 0 C2 1.1875 2 1.1875 4 3 C4.25 5.6875 4.25 5.6875 4 8 C3.34 8 2.68 8 2 8 C1.34 5.36 0.68 2.72 0 0 Z " fill="#F97F42" transform="translate(126,268)"/>
<path d="M0 0 C2.35448165 2.55068845 2.98327924 3.71017358 3.1875 7.25 C3.125625 8.1575 3.06375 9.065 3 10 C-0.00617269 6.99382731 0.40414684 4.17618402 0 0 Z " fill="#FA823D" transform="translate(164,266)"/>
<path d="" fill="#FFFFFF" transform="translate(0,0)"/>
<path d="" fill="#FFFFFF" transform="translate(0,0)"/>
<path d="" fill="#FFFFFF" transform="translate(0,0)"/>
<path d="" fill="#FFFFFF" transform="translate(0,0)"/>
<path d="" fill="#FFFFFF" transform="translate(0,0)"/>
<path d="" fill="#FFFFFF" transform="translate(0,0)"/>
<path d="" fill="#FFFFFF" transform="translate(0,0)"/>
<path d="" fill="#FFFFFF" transform="translate(0,0)"/>
<path d="" fill="#FFFFFF" transform="translate(0,0)"/>
<path d="" fill="#FFFFFF" transform="translate(0,0)"/>
<path d="" fill="#FFFFFF" transform="translate(0,0)"/>
<path d="" fill="#FFFFFF" transform="translate(0,0)"/>
<path d="" fill="#FFFFFF" transform="translate(0,0)"/>
<path d="" fill="#FFFFFF" transform="translate(0,0)"/>
<path d="" fill="#FFFFFF" transform="translate(0,0)"/>
<path d="" fill="#FFFFFF" transform="translate(0,0)"/>
<path d="" fill="#FFFFFF" transform="translate(0,0)"/>
<path d="" fill="#FFFFFF" transform="translate(0,0)"/>
<path d="" fill="#FFFFFF" transform="translate(0,0)"/>
<path d="" fill="#FFFFFF" transform="translate(0,0)"/>
<path d="" fill="#FFFFFF" transform="translate(0,0)"/>
<path d="" fill="#FFFFFF" transform="translate(0,0)"/>
<path d="" fill="#FFFFFF" transform="translate(0,0)"/>
<path d="" fill="#FFFFFF" transform="translate(0,0)"/>
<path d="" fill="#FFFFFF" transform="translate(0,0)"/>
<path d="" fill="#FFFFFF" transform="translate(0,0)"/>
<path d="" fill="#FFFFFF" transform="translate(0,0)"/>
<path d="" fill="#FFFFFF" transform="translate(0,0)"/>
<path d="" fill="#FFFFFF" transform="translate(0,0)"/>
<path d="" fill="#FFFFFF" transform="translate(0,0)"/>
<path d="" fill="#FFFFFF" transform="translate(0,0)"/>
<path d="" fill="#FFFFFF" transform="translate(0,0)"/>
<path d="" fill="#FFFFFF" transform="translate(0,0)"/>
<path d="" fill="#FFFFFF" transform="translate(0,0)"/>
<path d="" fill="#FFFFFF" transform="translate(0,0)"/>
<path d="" fill="#FFFFFF" transform="translate(0,0)"/>
<path d="" fill="#FFFFFF" transform="translate(0,0)"/>
<path d="" fill="#FFFFFF" transform="translate(0,0)"/>
<path d="" fill="#FFFFFF" transform="translate(0,0)"/>
<path d="" fill="#FFFFFF" transform="translate(0,0)"/>
<path d="" fill="#FFFFFF" transform="translate(0,0)"/>
<path d="" fill="#FFFFFF" transform="translate(0,0)"/>
<path d="" fill="#FFFFFF" transform="translate(0,0)"/>
<path d="" fill="#FFFFFF" transform="translate(0,0)"/>
<path d="" fill="#FFFFFF" transform="translate(0,0)"/>
<path d="" fill="#FFFFFF" transform="translate(0,0)"/>
<path d="" fill="#FFFFFF" transform="translate(0,0)"/>
<path d="" fill="#FFFFFF" transform="translate(0,0)"/>
<path d="" fill="#FFFFFF" transform="translate(0,0)"/>
<path d="" fill="#FFFFFF" transform="translate(0,0)"/>
<path d="" fill="#FFFFFF" transform="translate(0,0)"/>
<path d="" fill="#FFFFFF" transform="translate(0,0)"/>
<path d="" fill="#FFFFFF" transform="translate(0,0)"/>
<path d="" fill="#FFFFFF" transform="translate(0,0)"/>
<path d="" fill="#FFFFFF" transform="translate(0,0)"/>
<path d="" fill="#FFFFFF" transform="translate(0,0)"/>
<path d="" fill="#FFFFFF" transform="translate(0,0)"/>
<path d="" fill="#FFFFFF" transform="translate(0,0)"/>
<path d="" fill="#FFFFFF" transform="translate(0,0)"/>
<path d="" fill="#FFFFFF" transform="translate(0,0)"/>
<path d="" fill="#FFFFFF" transform="translate(0,0)"/>
<path d="" fill="#FFFFFF" transform="translate(0,0)"/>
<path d="" fill="#FFFFFF" transform="translate(0,0)"/>
<path d="" fill="#FFFFFF" transform="translate(0,0)"/>
<path d="" fill="#FFFFFF" transform="translate(0,0)"/>
<path d="" fill="#FFFFFF" transform="translate(0,0)"/>
<path d="" fill="#FFFFFF" transform="translate(0,0)"/>
<path d="" fill="#FFFFFF" transform="translate(0,0)"/>
<path d="" fill="#FFFFFF" transform="translate(0,0)"/>
<path d="" fill="#FFFFFF" transform="translate(0,0)"/>
<path d="" fill="#FFFFFF" transform="translate(0,0)"/>
<path d="" fill="#FFFFFF" transform="translate(0,0)"/>
<path d="" fill="#FFFFFF" transform="translate(0,0)"/>
<path d="" fill="#FFFFFF" transform="translate(0,0)"/>
<path d="" fill="#FFFFFF" transform="translate(0,0)"/>
<path d="" fill="#FFFFFF" transform="translate(0,0)"/>
<path d="" fill="#FFFFFF" transform="translate(0,0)"/>
<path d="" fill="#FFFFFF" transform="translate(0,0)"/>
</svg>
